<svg width="50" height="50" viewBox="0 0 50 50" fill="none" xmlns="http://www.w3.org/2000/svg">
<path d="M0 0V50H50V0H0ZM4.54545 4.54545H45.4545V45.4545H4.54545V4.54545ZM9.09091 14.4773V34.0455H18.5909C22.1364 34.0227 25.4773 32.3182 25.4773 28.3409C25.4773 25.8636 24.2955 23.7727 21.9091 23.0909C23.6591 22.2273 24.5682 21.2727 24.5682 19.3182C24.5682 15.4091 21.6818 14.4773 18.3182 14.4773H9.09091ZM29.8636 15.9091V17.8409H37.7727V15.9091H29.8636ZM13.4091 17.4773H17.4545C18.9773 17.4773 20.3864 17.9091 20.3864 19.7045C20.3864 21.3636 19.2955 22.0455 17.75 22.0455H13.4091V17.4773ZM34 19.1591C29.7045 19.1591 26.7727 22.3636 26.7727 26.6364C26.7727 31.0455 29.5227 34.0909 34 34.0909C37.3864 34.0909 39.5909 32.5682 40.6364 29.3182H37.2045C36.8182 30.5227 35.3182 31.1591 34.1364 31.1591C31.8409 31.1591 30.6591 29.8182 30.6591 27.5682H40.8636C40.8864 27.3409 40.9091 27.0682 40.9091 26.8182C40.9091 22.6364 38.4318 19.1591 34 19.1591ZM33.8636 22.0682C35.8409 22.0682 36.8182 23.2273 36.9773 25.1136H30.6591C30.7727 23.25 32 22.0682 33.8636 22.0682ZM13.3864 25.2955H18.0909C19.9773 25.2955 21.1818 26.0909 21.1818 28.1136C21.1818 30.0682 19.75 30.6818 18 30.6818H13.3864V25.2955Z" fill="white" fill-opacity="0.7"/>
</svg>
