<svg width="50" height="50" viewBox="0 0 50 50" fill="none" xmlns="http://www.w3.org/2000/svg">
<path d="M40.2429 13.8941C41.8321 15.6624 42.625 17.7253 42.625 20.083C42.625 28.6279 37.3823 31.1329 32.4558 31.8697C33.0915 32.9011 33.2504 34.08 33.2504 35.2588V41.2987C33.2504 42.0355 32.7736 42.4775 32.1379 42.4775C31.9703 42.4797 31.804 42.4507 31.6486 42.3922C31.4933 42.3338 31.3522 42.247 31.2337 42.1371C31.1152 42.0272 31.0216 41.8964 30.9586 41.7524C30.8955 41.6084 30.8642 41.4541 30.8666 41.2987V35.2588C30.9503 34.6413 30.8791 34.0142 30.6586 33.4263C30.4381 32.8385 30.0742 32.3057 29.5952 31.8697L30.3898 29.9541C35.3164 29.3647 40.4018 27.8911 40.4018 19.9356C40.4018 18.02 39.6072 16.2518 38.177 14.7782L37.8591 13.601C38.4634 12.1891 38.519 10.6262 38.0163 9.18041C37.2234 9.32614 35.6342 9.62247 32.9343 11.3907L31.979 11.5365C28.2256 10.6528 24.2936 10.6528 20.5402 11.5365L19.5849 11.3907C16.7278 9.76982 15.1386 9.32776 14.3423 9.32776C13.8655 10.8013 13.8655 12.4206 14.4994 13.7484L14.1834 14.9256C12.5941 16.3991 11.7995 18.3147 11.7995 20.083C11.7995 27.8911 16.5672 29.512 21.8098 30.1014L22.4455 32.017C21.492 32.9011 21.0152 34.08 21.1741 35.2588V41.4461C21.1765 41.6015 21.1452 41.7557 21.0821 41.8997C21.0191 42.0437 20.9255 42.1746 20.807 42.2845C20.6885 42.3944 20.5474 42.4811 20.3921 42.5396C20.2368 42.5981 20.0704 42.6271 19.9028 42.6249C19.7352 42.6271 19.5688 42.5981 19.4135 42.5396C19.2582 42.4811 19.1171 42.3944 18.9985 42.2845C18.88 42.1746 18.7864 42.0437 18.7234 41.8997C18.6603 41.7557 18.629 41.6015 18.6314 41.4461V38.0585C13.3887 39.09 11.3228 36.585 9.73356 34.671C8.93895 33.7869 8.30327 33.0501 7.50866 32.9028C7.35149 32.7554 6.87298 32.166 7.0319 31.5766C7.19082 30.9872 7.8265 30.5451 8.46393 30.8398C10.0531 31.1345 11.0049 32.3133 11.9567 33.3448C13.3887 35.1131 14.819 36.7323 19.1082 35.8498V35.2604C18.951 34.0816 19.2671 32.9028 19.9028 31.8713C15.1351 30.9872 9.57464 28.4822 9.57464 20.0846C9.57464 17.7269 10.3692 15.664 11.9585 13.8957C11.4817 11.8344 11.6406 9.62409 12.4352 7.85584L13.2298 7.26643C13.5477 7.11907 15.7726 6.67701 20.3778 9.32776C24.1855 8.44376 28.1696 8.44376 31.9773 9.32776C36.4288 6.52804 38.8126 6.96848 39.1305 7.11745L39.9251 7.70687C40.7197 9.76982 40.8786 11.8328 40.2429 13.8941Z" fill="white" fill-opacity="0.7"/>
<rect x="2" y="2" width="46" height="46" stroke="white" stroke-opacity="0.7" stroke-width="4"/>
</svg>
