<?xml version="1.0" encoding="utf-8"?>
<!-- Generator: Adobe Illustrator 23.0.3, SVG Export Plug-In . SVG Version: 6.00 Build 0)  -->
<svg version="1.1" id="logo" xmlns="http://www.w3.org/2000/svg" xmlns:xlink="http://www.w3.org/1999/xlink" x="0px" y="0px"
	 viewBox="0 0 63 59" style="enable-background:new 0 0 63 59;" xml:space="preserve">
<style type="text/css">
	.st0{fill:#FFFFFF;}
	.st1{fill:none;stroke:#FFFFFF;stroke-width:5;}
</style>
<path class="st0" d="M30.4,51.9l-4.6,2.2C17.5,37.1,9.2,20,0.9,2.9c1.8,0,3.7,0,5.5,0C14.4,19.2,22.4,35.6,30.4,51.9z"/>
<path class="st0" d="M25.4,51.9l4.6,2.2c8.3-17,16.6-34.1,24.8-51.2c-1.8,0-3.7,0-5.5,0C41.4,19.2,33.4,35.6,25.4,51.9z"/>
<path class="st0" d="M39.8,22.6l4.6-2.2l16.4,33.7c-1.7,0-3.4,0-5.2,0C50.4,43.6,45.1,33.1,39.8,22.6z"/>
<rect x="25.7" y="51.3" class="st0" width="4.2" height="2.8"/>
<line class="st1" x1="33.6" y1="42.3" x2="51.8" y2="42.3"/>
<path class="st1" d="M27.8,20v4.9"/>
</svg>
